<?xml version="1.0" encoding="utf-8"?>
<!-- Generator: Adobe Illustrator 21.0.2, SVG Export Plug-In . SVG Version: 6.00 Build 0)  -->
<svg version="1.1" id="Layer_1" xmlns="http://www.w3.org/2000/svg" xmlns:xlink="http://www.w3.org/1999/xlink" x="0px" y="0px"
	 viewBox="0 0 562.7 92.5" style="enable-background:new 0 0 562.7 92.5;" xml:space="preserve">
<style type="text/css">
	.st0{fill-rule:evenodd;clip-rule:evenodd;fill:#FFFFFF;}
	.st1{fill:#FFFFFF;}
</style>
<g>
	<path class="st0" d="M52.9,38.9c-1.5-0.6-3.1-1-4.8-1c-1.7,0-3.3,0.3-4.7,0.9c0.4,3.3,2.1,6.3,4.6,8.3
		C50.5,45.1,52.3,42.2,52.9,38.9L52.9,38.9z"/>
	<path class="st0" d="M96.3,33.7c-0.2,11.8-6.6,22-16,27.6c-0.7,17.6-15.4,31.6-33.2,31.3c-17.8-0.3-32-14.7-32.1-32.4
		C5.8,54.2-0.2,43.8,0,32.2C0.3,14.1,15.1-0.3,33.2,0C38.8,0.1,44,1.6,48.6,4.1c4.6-2.4,9.9-3.7,15.5-3.6
		C82.2,0.8,96.6,15.6,96.3,33.7L96.3,33.7z M16,51.8C19.6,37.5,32.7,27,48.1,27.2c3.4,0.1,6.6,0.6,9.7,1.6c-1-6.5-4.4-12.2-9.3-16.1
		c-3.8,2.8-6.8,6.7-8.5,11.2c-2.9,0.6-5.7,1.6-8.4,3c1.4-7.1,5-13.4,10.2-18.1c-2.7-1-5.6-1.6-8.6-1.7C19,7,7.5,18.2,7.3,32.3
		C7.1,40,10.5,47.1,16,51.8L16,51.8z M57.8,36.6c-3-1.3-6.3-2.1-9.8-2.1c-3.4-0.1-6.6,0.6-9.6,1.7c0.8,6.8,4.3,12.8,9.4,16.9
		C53,49.2,56.7,43.3,57.8,36.6L57.8,36.6z M54.6,56.9c2.7,1,5.6,1.6,8.6,1.7c3.4,0.1,6.6-0.6,9.6-1.7c-0.6-4.9-2.6-9.4-5.5-13
		c0.8-2.8,1.3-5.7,1.3-8.7l0-0.2c5.4,4.6,9.4,10.9,10.9,18.1c5.7-4.6,9.3-11.5,9.5-19.4C89.2,19.5,78,8,64,7.8c-3,0-6,0.4-8.7,1.4
		c6.3,6.1,10.2,14.6,10,24C65.2,42.6,61,51,54.6,56.9L54.6,56.9z M22.5,56c3,1.3,6.3,2.1,9.8,2.1c1.2,0,2.5-0.1,3.6-0.2
		c1.6,1.8,3.4,3.5,5.5,5c0.4,0.3,0.9,0.6,1.3,0.9c-3.3,1.1-6.9,1.6-10.6,1.6c-3.4-0.1-6.6-0.6-9.7-1.6c1.8,12,12.1,21.4,24.7,21.6
		c12.6,0.2,23.1-8.8,25.4-20.7c-3,0.9-6.2,1.3-9.5,1.2c-15.5-0.2-28.3-11.2-31.4-25.7C26.9,44,23.5,49.6,22.5,56L22.5,56z"/>
	<path class="st1" d="M139.4,29.6v8.2c-2.1,1.3-4.6,2-6.8,2c-6,0-10.8-4.6-10.8-10.5c0-5.8,4.7-10.4,10.7-10.4
		c3.1,0,6.2,1.3,8.5,3.4l2.8-3.7c-2.9-2.5-7.1-4.1-11.3-4.1c-8.9,0-15.8,6.4-15.8,14.8c0,8.4,6.8,14.9,15.5,14.9
		c4,0,8.4-1.6,11.4-3.8V29.6H139.4L139.4,29.6z"/>
	<path class="st1" d="M169.8,44h5.6l-6.6-9.8c3.9-1.5,6.1-4.8,6.1-9.5c0-6.4-4.3-10-11.9-10h-11.9V44h5v-8.9h7c0.5,0,0.9,0,1.3,0
		L169.8,44L169.8,44z M156.1,30.7V19.1h7c4.5,0,7.1,1.8,7.1,5.7c0,4-2.6,5.9-7.1,5.9H156.1L156.1,30.7z"/>
	<path class="st1" d="M201,37.4l2.8,6.6h5.3l-12.9-29.4h-5.1l-13,29.4h5.2l2.8-6.6H201L201,37.4z M199.1,33H188l5.5-13.1L199.1,33
		L199.1,33z"/>
	<path class="st1" d="M225.7,14.5c-8.7,0-15.5,6.4-15.5,14.8c0,8.4,6.7,15,15.3,15c4.2,0,8.4-1.9,11.4-4.8l-2.9-3.3
		c-2.2,2.1-5.3,3.5-8.2,3.5c-5.9,0-10.5-4.6-10.5-10.4c0-5.8,4.6-10.3,10.5-10.3c3,0,6.1,1.4,8.2,3.7l2.9-3.6
		C234,16.2,229.9,14.5,225.7,14.5L225.7,14.5z"/>
	<polygon class="st1" points="263.4,19.1 263.4,14.6 242.4,14.6 242.4,44 263.9,44 263.9,39.6 247.3,39.6 247.3,31.5 261.7,31.5 
		261.7,27 247.3,27 247.3,19.1 263.4,19.1 	"/>
	<path class="st1" d="M294.3,14.5c-8.7,0-15.5,6.4-15.5,14.8c0,8.4,6.7,15,15.3,15c4.2,0,8.4-1.9,11.4-4.8l-2.9-3.3
		c-2.2,2.1-5.3,3.5-8.2,3.5c-5.9,0-10.5-4.6-10.5-10.4c0-5.8,4.6-10.3,10.5-10.3c3,0,6.1,1.4,8.2,3.7l2.9-3.6
		C302.6,16.2,298.4,14.5,294.3,14.5L294.3,14.5z"/>
	<path class="st1" d="M323.5,14.5c-8.8,0-15.6,6.4-15.6,14.8c0,8.4,6.8,14.9,15.6,14.9c8.8,0,15.6-6.5,15.6-14.9
		C339.1,20.9,332.2,14.5,323.5,14.5L323.5,14.5z M323.5,18.9c5.8,0,10.5,4.5,10.5,10.4c0,5.8-4.7,10.5-10.5,10.5
		s-10.6-4.6-10.6-10.5C312.9,23.5,317.7,18.9,323.5,18.9L323.5,18.9z"/>
	<polygon class="st1" points="375.9,44 375.9,14.6 370,14.6 360.4,34.2 350.7,14.6 344.8,14.6 344.8,44 349.4,44 349.4,22.1 
		358.7,41 362,41 371.2,22.1 371.3,44 375.9,44 	"/>
	<polygon class="st1" points="415.2,44 415.2,14.6 409.3,14.6 399.7,34.2 390,14.6 384.1,14.6 384.1,44 388.7,44 388.7,22.1 398,41 
		401.3,41 410.5,22.1 410.6,44 415.2,44 	"/>
	<path class="st1" d="M448.4,14.6h-5v17.2c0,5-3,7.9-7.8,7.9c-4.8,0-7.9-3-7.9-7.9V14.6h-5v17.2c0,7.7,4.9,12.4,12.8,12.4
		s12.8-4.7,12.8-12.4V14.6L448.4,14.6z"/>
	<polygon class="st1" points="481.4,44 481.4,14.6 476.5,14.6 476.5,35.8 460.8,14.6 455.9,14.6 455.9,44 460.9,44 460.9,22.9 
		476.5,44 481.4,44 	"/>
	<polygon class="st1" points="494.6,44 494.6,14.6 489.6,14.6 489.6,44 494.6,44 	"/>
	<path class="st1" d="M515.9,14.5c-8.8,0-15.6,6.4-15.6,14.8c0,8.4,6.8,14.9,15.6,14.9s15.6-6.5,15.6-14.9
		C531.5,20.9,524.7,14.5,515.9,14.5L515.9,14.5z M515.9,18.9c5.8,0,10.5,4.5,10.5,10.4c0,5.8-4.7,10.5-10.5,10.5
		s-10.6-4.6-10.6-10.5C505.3,23.5,510.1,18.9,515.9,18.9L515.9,18.9z"/>
	<polygon class="st1" points="562.7,44 562.7,14.6 557.8,14.6 557.8,35.8 542.1,14.6 537.2,14.6 537.2,44 542.2,44 542.2,22.9 
		557.8,44 562.7,44 	"/>
	<path class="st1" d="M126.4,77.1v0.5h-8.1v-0.5h0.7c0.8,0,1.3-0.2,1.7-0.7c0.2-0.3,0.3-1,0.3-2.1V62.1c0-1-0.1-1.6-0.2-1.9
		c-0.1-0.2-0.3-0.4-0.6-0.6c-0.4-0.2-0.8-0.3-1.3-0.3h-0.7v-0.5h8.1v0.5h-0.7c-0.8,0-1.3,0.2-1.7,0.7c-0.2,0.3-0.3,1-0.3,2.1v12.2
		c0,1,0.1,1.6,0.2,1.9c0.1,0.2,0.3,0.4,0.6,0.6c0.4,0.2,0.8,0.3,1.3,0.3H126.4L126.4,77.1z"/>
	<path class="st1" d="M144.7,58.8h5.1l11.6,14.2V62c0-1.2-0.1-1.9-0.4-2.2c-0.3-0.4-0.9-0.6-1.6-0.6h-0.7v-0.5h6.6v0.5h-0.7
		c-0.8,0-1.4,0.2-1.7,0.7c-0.2,0.3-0.3,1-0.3,2v15.9h-0.5l-12.4-15.2v11.6c0,1.2,0.1,1.9,0.4,2.2c0.4,0.4,0.9,0.6,1.7,0.6h0.7v0.5
		h-6.6v-0.5h0.7c0.8,0,1.4-0.2,1.7-0.7c0.2-0.3,0.3-1,0.3-2V61.2c-0.5-0.6-1-1.1-1.2-1.3c-0.3-0.2-0.7-0.4-1.2-0.6
		c-0.3-0.1-0.7-0.1-1.2-0.1V58.8L144.7,58.8z"/>
	<path class="st1" d="M200.2,58.8l0.2,4.4h-0.5c-0.1-0.8-0.2-1.3-0.4-1.7c-0.3-0.5-0.7-0.9-1.1-1.2c-0.5-0.3-1.1-0.4-1.9-0.4h-2.7
		v14.4c0,1.2,0.1,1.9,0.4,2.2c0.4,0.4,0.9,0.6,1.6,0.6h0.6v0.5h-8v-0.5h0.7c0.8,0,1.4-0.2,1.7-0.7c0.2-0.3,0.3-1,0.3-2V60h-2.3
		c-0.9,0-1.5,0.1-1.9,0.2c-0.5,0.2-0.9,0.5-1.2,1c-0.3,0.5-0.5,1.2-0.6,2h-0.5l0.2-4.4H200.2L200.2,58.8z"/>
	<path class="st1" d="M225.1,59.8v7.5h4.2c1.1,0,1.8-0.2,2.2-0.5c0.5-0.4,0.7-1.2,0.8-2.2h0.5v6.6h-0.5c-0.1-0.9-0.3-1.5-0.4-1.8
		c-0.2-0.3-0.4-0.6-0.8-0.8c-0.4-0.2-1-0.3-1.8-0.3h-4.2v6.2c0,0.8,0,1.3,0.1,1.5c0.1,0.2,0.2,0.3,0.4,0.4c0.2,0.1,0.5,0.2,1.1,0.2
		h3.2c1.1,0,1.8-0.1,2.3-0.2c0.5-0.1,0.9-0.4,1.4-0.9c0.6-0.6,1.2-1.4,1.8-2.6h0.6l-1.6,4.7h-14.5v-0.5h0.7c0.4,0,0.9-0.1,1.3-0.3
		c0.3-0.1,0.5-0.4,0.6-0.7c0.1-0.3,0.2-0.9,0.2-1.8V62c0-1.2-0.1-1.9-0.4-2.2c-0.3-0.4-0.9-0.6-1.7-0.6h-0.7v-0.5h14.5l0.2,4.2h-0.5
		c-0.2-1-0.4-1.7-0.6-2.1c-0.2-0.4-0.6-0.7-1-0.9c-0.4-0.1-1-0.2-2-0.2H225.1L225.1,59.8z"/>
	<path class="st1" d="M273.9,77.6h-5.1l-6.4-8.8c-0.5,0-0.8,0-1.1,0c-0.1,0-0.2,0-0.4,0c-0.1,0-0.3,0-0.4,0v5.5
		c0,1.2,0.1,1.9,0.4,2.2c0.4,0.4,0.9,0.6,1.6,0.6h0.7v0.5h-8.1v-0.5h0.7c0.8,0,1.4-0.3,1.7-0.8c0.2-0.3,0.3-1,0.3-2V62.1
		c0-1.2-0.1-1.9-0.4-2.2c-0.4-0.4-0.9-0.6-1.6-0.6h-0.7v-0.5h6.9c2,0,3.5,0.1,4.4,0.4c1,0.3,1.8,0.8,2.4,1.6c0.7,0.8,1,1.7,1,2.8
		c0,1.2-0.4,2.2-1.1,3c-0.8,0.9-1.9,1.5-3.5,1.8l3.9,5.4c0.9,1.2,1.7,2.1,2.3,2.5c0.6,0.4,1.5,0.7,2.5,0.8V77.6L273.9,77.6z
		 M260.5,67.9c0.2,0,0.3,0,0.5,0c0.1,0,0.2,0,0.3,0c1.8,0,3.1-0.4,4-1.2c0.9-0.8,1.4-1.8,1.4-3c0-1.2-0.4-2.1-1.1-2.9
		c-0.7-0.7-1.7-1.1-2.9-1.1c-0.5,0-1.3,0.1-2.2,0.3V67.9L260.5,67.9z"/>
	<path class="st1" d="M291.3,58.8h5.1l11.6,14.2V62c0-1.2-0.1-1.9-0.4-2.2c-0.3-0.4-0.9-0.6-1.6-0.6h-0.7v-0.5h6.6v0.5h-0.7
		c-0.8,0-1.4,0.2-1.7,0.7c-0.2,0.3-0.3,1-0.3,2v15.9h-0.5l-12.4-15.2v11.6c0,1.2,0.1,1.9,0.4,2.2c0.4,0.4,0.9,0.6,1.7,0.6h0.7v0.5
		h-6.6v-0.5h0.7c0.8,0,1.4-0.2,1.7-0.7c0.2-0.3,0.3-1,0.3-2V61.2c-0.5-0.6-1-1.1-1.2-1.3c-0.3-0.2-0.7-0.4-1.2-0.6
		c-0.3-0.1-0.7-0.1-1.2-0.1V58.8L291.3,58.8z"/>
	<path class="st1" d="M343.3,71.3H336l-1.3,3c-0.3,0.7-0.5,1.3-0.5,1.6c0,0.3,0.1,0.5,0.4,0.8c0.3,0.2,0.9,0.4,1.8,0.4v0.5h-5.9
		v-0.5c0.8-0.1,1.3-0.3,1.5-0.5c0.5-0.4,1-1.4,1.6-2.7l6.6-15.5h0.5l6.6,15.7c0.5,1.3,1,2.1,1.4,2.5c0.4,0.4,1,0.6,1.8,0.6v0.5h-7.4
		v-0.5c0.7,0,1.3-0.2,1.5-0.4c0.3-0.2,0.4-0.5,0.4-0.8c0-0.4-0.2-1.1-0.6-1.9L343.3,71.3L343.3,71.3z M342.9,70.3l-3.2-7.6l-3.3,7.6
		H342.9L342.9,70.3z"/>
	<path class="st1" d="M382.2,58.8l0.2,4.4h-0.5c-0.1-0.8-0.2-1.3-0.4-1.7c-0.3-0.5-0.7-0.9-1.1-1.2c-0.5-0.3-1.1-0.4-1.9-0.4h-2.7
		v14.4c0,1.2,0.1,1.9,0.4,2.2c0.4,0.4,0.9,0.6,1.6,0.6h0.6v0.5h-8v-0.5h0.7c0.8,0,1.4-0.2,1.7-0.7c0.2-0.3,0.3-1,0.3-2V60h-2.3
		c-0.9,0-1.5,0.1-1.9,0.2c-0.5,0.2-0.9,0.5-1.2,1c-0.3,0.5-0.5,1.2-0.6,2h-0.5l0.2-4.4H382.2L382.2,58.8z"/>
	<path class="st1" d="M410,77.1v0.5h-8.1v-0.5h0.7c0.8,0,1.3-0.2,1.7-0.7c0.2-0.3,0.3-1,0.3-2.1V62.1c0-1-0.1-1.6-0.2-1.9
		c-0.1-0.2-0.3-0.4-0.6-0.6c-0.4-0.2-0.8-0.3-1.3-0.3h-0.7v-0.5h8.1v0.5h-0.7c-0.8,0-1.3,0.2-1.7,0.7c-0.2,0.3-0.3,1-0.3,2.1v12.2
		c0,1,0.1,1.6,0.2,1.9c0.1,0.2,0.3,0.4,0.6,0.6c0.4,0.2,0.8,0.3,1.3,0.3H410L410,77.1z"/>
	<path class="st1" d="M439.1,58.3c2.4,0,4.6,0.9,6.4,2.8c1.8,1.9,2.7,4.2,2.7,7c0,2.9-0.9,5.2-2.7,7.1c-1.8,1.9-4,2.8-6.6,2.8
		c-2.6,0-4.8-0.9-6.5-2.8c-1.8-1.8-2.6-4.2-2.6-7.2c0-3,1-5.4,3.1-7.3C434.6,59.1,436.7,58.3,439.1,58.3L439.1,58.3z M438.9,59.3
		c-1.7,0-3,0.6-4,1.9c-1.3,1.6-1.9,3.8-1.9,6.8c0,3.1,0.7,5.5,2,7.1c1,1.3,2.3,1.9,4,1.9c1.8,0,3.2-0.7,4.4-2.1
		c1.2-1.4,1.7-3.6,1.7-6.5c0-3.2-0.6-5.6-1.9-7.2C442.1,60,440.7,59.3,438.9,59.3L438.9,59.3z"/>
	<path class="st1" d="M467,58.8h5.1l11.6,14.2V62c0-1.2-0.1-1.9-0.4-2.2c-0.3-0.4-0.9-0.6-1.6-0.6h-0.7v-0.5h6.6v0.5h-0.7
		c-0.8,0-1.4,0.2-1.7,0.7c-0.2,0.3-0.3,1-0.3,2v15.9h-0.5l-12.4-15.2v11.6c0,1.2,0.1,1.9,0.4,2.2c0.4,0.4,0.9,0.6,1.7,0.6h0.7v0.5
		H468v-0.5h0.7c0.8,0,1.4-0.2,1.7-0.7c0.2-0.3,0.3-1,0.3-2V61.2c-0.5-0.6-1-1.1-1.2-1.3c-0.3-0.2-0.7-0.4-1.2-0.6
		c-0.3-0.1-0.7-0.1-1.2-0.1V58.8L467,58.8z"/>
	<path class="st1" d="M519,71.3h-7.3l-1.3,3c-0.3,0.7-0.5,1.3-0.5,1.6c0,0.3,0.1,0.5,0.4,0.8c0.3,0.2,0.9,0.4,1.8,0.4v0.5h-5.9v-0.5
		c0.8-0.1,1.3-0.3,1.5-0.5c0.5-0.4,1-1.4,1.6-2.7l6.6-15.5h0.5L523,74c0.5,1.3,1,2.1,1.4,2.5c0.4,0.4,1,0.6,1.8,0.6v0.5h-7.4v-0.5
		c0.7,0,1.3-0.2,1.5-0.4c0.3-0.2,0.4-0.5,0.4-0.8c0-0.4-0.2-1.1-0.6-1.9L519,71.3L519,71.3z M518.6,70.3l-3.2-7.6l-3.3,7.6H518.6
		L518.6,70.3z"/>
	<path class="st1" d="M560.9,72.4l0.5,0.1l-1.6,5.1h-14.6v-0.5h0.7c0.8,0,1.4-0.3,1.7-0.8c0.2-0.3,0.3-1,0.3-2V62.1
		c0-1.2-0.1-1.9-0.4-2.2c-0.4-0.4-0.9-0.6-1.6-0.6h-0.7v-0.5h8.5v0.5c-1,0-1.7,0.1-2.1,0.3c-0.4,0.2-0.7,0.4-0.8,0.7
		c-0.1,0.3-0.2,1-0.2,2.1v11.9c0,0.8,0.1,1.3,0.2,1.6c0.1,0.2,0.3,0.3,0.5,0.4c0.2,0.1,1,0.1,2.2,0.1h1.4c1.5,0,2.5-0.1,3.1-0.3
		c0.6-0.2,1.1-0.6,1.6-1.1C560,74.4,560.4,73.6,560.9,72.4L560.9,72.4z"/>
</g>
</svg>
